<?xml version="1.0" encoding="utf-8"?>
<!-- Generator: Adobe Illustrator 23.0.3, SVG Export Plug-In . SVG Version: 6.00 Build 0)  -->
<svg version="1.1" id="Layer_1" xmlns="http://www.w3.org/2000/svg" xmlns:xlink="http://www.w3.org/1999/xlink" x="0px" y="0px"
	 viewBox="0 0 158.7 133.8" style="enable-background:new 0 0 158.7 133.8;" xml:space="preserve">
<style type="text/css">
	.st0{fill:#FFFFFF;}
	.st1{fill:#ED1C24;}
</style>
<path class="st0" d="M2.4,95.7h25.8l23.4-65.9c0.6-1.6,1.9-3.1,4-4.3c2.1-1.2,4.5-1.8,7.2-1.8h64.7l7.9-22.2H51.9
	C41,1.5,34,6.1,30.8,15.2L2.4,95.7z"/>
<path class="st1" d="M156.3,58.5l-9,25.2c-2.2,6.1-6,9.8-11.5,10.9H72.9l-13.6,38.2l-25.7-0.1L67,38.3h74.4c4.7,0,8.6,1.1,11.7,3.4
	c3.1,2.2,4.6,5.5,4.6,9.6C157.7,53.5,157.3,55.9,156.3,58.5z M128.2,65.2c0.1-0.3,0.1-0.6,0.1-0.9c0-2.5-2-3.8-5.9-3.8H84.9
	l-4.3,12.1h38.3c2.8,0,4.7-0.3,5.9-0.9c0.9-0.5,1.6-1.6,2.1-3.1L128.2,65.2z"/>
</svg>
