<?xml version="1.0" encoding="utf-8"?>
<!-- Generator: Adobe Illustrator 23.0.3, SVG Export Plug-In . SVG Version: 6.00 Build 0)  -->
<svg version="1.1" id="Layer_1" xmlns="http://www.w3.org/2000/svg" xmlns:xlink="http://www.w3.org/1999/xlink" x="0px" y="0px"
	 viewBox="0 0 1200 96" style="enable-background:new 0 0 1200 96;" xml:space="preserve">
<style type="text/css">
	.st0{fill:#13151a;}
	.st1{fill:#E83637;}
</style>
<g>
	<path class="st0" d="M494.1,19.8l-26.6,75.4h-79.4c-4.3,0-7.6-1.4-9.7-4.3c-1.7-2.5-2.6-5.5-2.6-9.2c0-2.5,0.4-4.9,1.2-7l10.2-29.2
		c2.4-7.1,7.4-10.7,15-10.7H463l1.8-5.5c0.2-0.7,0.4-1.4,0.4-2c0-2.7-1.8-4.1-5.3-4.1h-65L402.6,1h80c8.4,0,12.5,4.2,12.5,12.5
		C495.2,15.7,494.8,17.8,494.1,19.8z M457.2,57.3h-40.7c-3.7,0-6.2,1.7-7.3,5l-1.5,4c-0.3,1-0.5,2-0.5,2.8c0,2.6,1.3,3.9,4,3.9h40.5
		L457.2,57.3z"/>
	<path class="st0" d="M570.7,95.2h-67.2c-4.7,0-8.6-1.1-11.7-3.4c-3-2.2-4.6-5.5-4.6-9.6c0-2.2,0.4-4.6,1.3-7.1l22.2-63.6
		c2.5-7,6.9-10.5,13.5-10.5h79.8l-7.8,22.2h-55.8c-5.2,0-8.4,1.8-9.6,5.3c0.2-0.9-4.5,12.4-14.1,39.9c-0.1,0.3-0.1,0.6-0.1,0.9
		c0,2.4,2,3.7,5.9,3.7h56.1L570.7,95.2z"/>
	<path class="st0" d="M709.9,24.7l-12.3,34.7H623l-2,6.1c-0.6,1.5-0.8,2.8-0.8,3.8c0,2.5,1.6,3.7,4.7,3.7h67.9L685,95.2h-73.2
		c-13.9,0-20.8-4.3-20.8-13c0-2.4,0.9-6.2,2.6-11.2l21.7-62.6c1.7-4.9,6-7.3,12.7-7.3h69.5c9.9,0,14.9,4.1,14.9,12.3
		C712.3,16.3,711.5,20.2,709.9,24.7z M682.3,29.3c0.2-0.5,0.2-1,0.2-1.5c0-3.1-1.9-4.6-5.8-4.6h-33.1c-2.8,0-4.9,0.2-6,0.6
		c-1.7,0.6-2.8,1.8-3.3,3.5l-3.2,9.9h48.6L682.3,29.3z"/>
	<path class="st0" d="M256.9,95.2h25.8l23.4-65.9c0.6-1.6,1.9-3.1,4-4.3c2.1-1.2,4.5-1.8,7.2-1.8H382L389.9,1h-83.4
		c-10.9,0-17.9,4.6-21.2,13.7L256.9,95.2z"/>
	<path class="st1" d="M820.9,21l-9,25.2c-2.2,6.1-6,9.8-11.5,10.9h-62.9l-13.6,38.2l-25.7-0.1l33.4-94.3H806c4.7,0,8.6,1.1,11.7,3.4
		c3.1,2.2,4.6,5.5,4.6,9.6C822.4,16,821.9,18.4,820.9,21z M792.8,27.7c0.1-0.3,0.1-0.6,0.1-0.9c0-2.5-2-3.8-5.9-3.8h-37.5l-4.3,12.1
		h38.3c2.8,0,4.7-0.3,5.9-0.9c0.9-0.5,1.6-1.6,2.1-3.1L792.8,27.7z"/>
	<path class="st1" d="M929,25.9l-21.4,60.5c-1.1,3.1-3.1,5.4-6,7c-2.3,1.2-4.8,1.8-7.5,1.8h-68.5c-9.5,0-14.2-4.1-14.2-12.2
		c0-3.6,0.9-7.8,2.7-12.6l2-5l19.4-55.6c1-3.1,3-5.4,5.9-7c2.4-1.3,4.9-1.9,7.6-1.9h68.5c9.4,0,14.1,4.1,14.1,12.2
		C931.6,16.6,930.7,20.8,929,25.9z M901.4,30.5c0.3-0.8,0.5-1.6,0.5-2.4c0-3.3-1.4-5-4.2-5h-34.3c-4.6,0-7.7,2.4-9.3,7.1l-12.3,35.4
		c-0.3,0.8-0.5,1.6-0.5,2.5c0,3.2,1.4,4.9,4.3,4.9h34.3c2.8,0,5-0.7,6.5-2.1c0.9-0.9,1.9-2.6,2.7-4.8L901.4,30.5z"/>
	<path class="st1" d="M976.7,0.8l-33.4,94.4h-25.8l33.4-94.4H976.7z"/>
	<path class="st1" d="M1080.1,25.9l-24.6,69.3h-25.6l22.6-64.7c0.2-0.8,0.4-1.6,0.4-2.4c0-3.3-1.4-5-4.1-5h-34.3
		c-4.7,0-7.8,2.4-9.3,7.1l-22.6,64.9h-25.8l33-94.2h78.9c9.4,0,14.1,4.1,14.1,12.2C1082.7,16.6,1081.8,20.8,1080.1,25.9z"/>
	<path class="st1" d="M1102.2,95.2l25.4-72h-38.8l8-22.4H1199l-7.9,22.4h-37.6l-25.4,72H1102.2z"/>
	<polygon class="st0" points="76.9,8.6 275.5,8.6 278.2,1 79.6,1 	"/>
	<polygon class="st0" points="239.4,17.1 272.5,17.1 269.8,24.7 236.7,24.7 	"/>
	<polygon class="st0" points="104.9,50.6 260.7,50.6 263.4,43 107.6,43 	"/>
	<polygon class="st0" points="131.2,70.5 253.6,70.5 251,78.1 128.5,78.1 	"/>
	<polygon class="st0" points="3.7,87.6 247.6,87.6 244.9,95.2 1,95.2 	"/>
</g>
</svg>
